# xmcd
#
# Track frame offsets: 
#        150
#        12351
#        24122
#        35315
#        44651
#        55618
#        64889
#        76973
#        86439
#        98975
#        110106
#        121369
#
# Disc length: 1766 seconds
#
# Revision: 1
# Processed by: cddbd v1.5.1PL2 Copyright (c) Steve Scherf et al.
# Submitted via: ExactAudioCopy v0.95b4
#
DISCID=9306e40c
DTITLE=Del Reeves - His Greatest Hits
DYEAR=1900
DGENRE=Country
TTITLE0=Girl On The Billboard
TTITLE1=The Belles Of Southern Bell
TTITLE2=Women Do Funny Things To Me
TTITLE3=A Dime At A Time
TTITLE4=Looking At The World Through A Windshield
TTITLE5=Good Time Charlie's
TTITLE6=Be Glad
TTITLE7=There Wouldn't Be A Lonely Heart In Town
TTITLE8=A Lover's Question
TTITLE9=The Philadelphia Fillies
TTITLE10=Crying In The Rain
TTITLE11=But I Do
EXTD=
EXTT0=
EXTT1=
EXTT2=
EXTT3=
EXTT4=
EXTT5=
EXTT6=
EXTT7=
EXTT8=
EXTT9=
EXTT10=With Penny DeHaven
EXTT11=
PLAYORDER=
